<svg xmlns="http://www.w3.org/2000/svg" xmlns:xlink="http://www.w3.org/1999/xlink" viewBox="0,0,256,256" width="50px" height="50px" fill-rule="nonzero"><g fill="#f7f7f7" fill-rule="nonzero" stroke="none" stroke-width="1" stroke-linecap="butt" stroke-linejoin="miter" stroke-miterlimit="10" stroke-dasharray="" stroke-dashoffset="0" font-family="none" font-weight="none" font-size="none" text-anchor="none" style="mix-blend-mode: normal"><g transform="scale(5.12,5.12)"><path d="M30.39844,2h-23.39844v46h36v-33.39844zM30,15v-10.60156l10.60156,10.60156z"></path></g></g><g fill="#000000" fill-rule="nonzero" stroke="none" stroke-width="1" stroke-linecap="butt" stroke-linejoin="miter" stroke-miterlimit="10" stroke-dasharray="" stroke-dashoffset="0" font-family="none" font-weight="none" font-size="none" text-anchor="none" style="mix-blend-mode: normal"><g><path d="M105.675,152.634h16.5c-0.62667,8.61333 -3.81,15.39333 -9.55,20.34c-5.73333,4.95333 -13.29333,7.43 -22.68,7.43v0c-10.26667,0 -18.34333,-3.45667 -24.23,-10.37c-5.88667,-6.91333 -8.83,-16.4 -8.83,-28.46v0v-4.89c0,-7.7 1.35667,-14.48667 4.07,-20.36c2.71333,-5.86667 6.59,-10.36667 11.63,-13.5c5.04667,-3.13333 10.90667,-4.7 17.58,-4.7v0c9.24,0 16.68333,2.47667 22.33,7.43c5.64667,4.94667 8.91,11.89333 9.79,20.84v0h-16.5c-0.40667,-5.16667 -1.84667,-8.91667 -4.32,-11.25c-2.48,-2.32667 -6.24667,-3.49 -11.3,-3.49v0c-5.50667,0 -9.62333,1.97 -12.35,5.91c-2.73333,3.94 -4.13667,10.05667 -4.21,18.35v0v6.05c0,8.65333 1.31,14.97667 3.93,18.97c2.62667,4 6.76333,6 12.41,6v0c5.09333,0 8.89667,-1.16667 11.41,-3.5c2.51333,-2.32667 3.95333,-5.92667 4.32,-10.8zM144.555,99.224l18.04,60.22l18.15,-60.22h18.37l-27.88,80.08h-17.22l-27.77,-80.08z"></path></g></g></svg>